<?xml version="1.0" encoding="UTF-8"?>
<svg version="1.1" xmlns="http://www.w3.org/2000/svg" width="305" height="94">
<path d="M0 0 C0.7115625 0.31324219 1.423125 0.62648437 2.15625 0.94921875 C4.15482621 1.89257655 6.07302698 2.91921948 8 4 C8.99 4.515625 9.98 5.03125 11 5.5625 C19.445957 12.42484007 24.7160493 22.45083199 27 33 C27.24605809 36.5592675 27.23113979 40.12056228 27.25 43.6875 C27.270625 44.64333984 27.29125 45.59917969 27.3125 46.58398438 C27.34723708 52.95389686 26.42872251 58.1161697 24 64 C23.71584229 64.69319336 23.43168457 65.38638672 23.13891602 66.10058594 C22.44715778 67.74282204 21.72694288 69.3730326 21 71 C20.34 71 19.68 71 19 71 C18.896875 71.58910156 18.79375 72.17820312 18.6875 72.78515625 C16.96595619 78.33126612 11.34650547 82.00309365 6.5 84.75 C-6.32963331 91.3830077 -21.63033244 93.88067957 -35.8125 89.6875 C-37.22251617 89.16156146 -38.62058151 88.60163243 -40 88 C-40.70769531 87.71382813 -41.41539063 87.42765625 -42.14453125 87.1328125 C-43.7777266 86.45634105 -45.39189888 85.73413312 -47 85 C-47 84.34 -47 83.68 -47 83 C-48.32 82.67 -49.64 82.34 -51 82 C-51 81.34 -51 80.68 -51 80 C-52.32 79.34 -53.64 78.68 -55 78 C-55 77.34 -55 76.68 -55 76 C-55.66 76 -56.32 76 -57 76 C-66.4280749 65.29786092 -68.10725284 52.16095764 -67.54296875 38.43359375 C-66.67780928 27.15484429 -62.63564575 17.61377155 -54.734375 9.40625 C-53 8 -53 8 -51 8 C-51 7.34 -51 6.68 -51 6 C-37.73693671 -4.47083944 -15.40376422 -6.96131652 0 0 Z " fill="#F7FAFB" transform="translate(67,3)"/>
<path d="M0 0 C0.7115625 0.31324219 1.423125 0.62648437 2.15625 0.94921875 C4.15482621 1.89257655 6.07302698 2.91921948 8 4 C8.99 4.515625 9.98 5.03125 11 5.5625 C19.445957 12.42484007 24.7160493 22.45083199 27 33 C27.24605809 36.5592675 27.23113979 40.12056228 27.25 43.6875 C27.270625 44.64333984 27.29125 45.59917969 27.3125 46.58398438 C27.34723708 52.95389686 26.42872251 58.1161697 24 64 C23.71584229 64.69319336 23.43168457 65.38638672 23.13891602 66.10058594 C22.44715778 67.74282204 21.72694288 69.3730326 21 71 C20.34 71 19.68 71 19 71 C18.896875 71.58910156 18.79375 72.17820312 18.6875 72.78515625 C16.96595619 78.33126612 11.34650547 82.00309365 6.5 84.75 C-6.32963331 91.3830077 -21.63033244 93.88067957 -35.8125 89.6875 C-37.22251617 89.16156146 -38.62058151 88.60163243 -40 88 C-40.70769531 87.71382813 -41.41539063 87.42765625 -42.14453125 87.1328125 C-43.7777266 86.45634105 -45.39189888 85.73413312 -47 85 C-47 84.34 -47 83.68 -47 83 C-48.32 82.67 -49.64 82.34 -51 82 C-51 81.34 -51 80.68 -51 80 C-52.32 79.34 -53.64 78.68 -55 78 C-55 77.34 -55 76.68 -55 76 C-55.66 76 -56.32 76 -57 76 C-66.4280749 65.29786092 -68.10725284 52.16095764 -67.54296875 38.43359375 C-66.67780928 27.15484429 -62.63564575 17.61377155 -54.734375 9.40625 C-53 8 -53 8 -51 8 C-51 7.34 -51 6.68 -51 6 C-37.73693671 -4.47083944 -15.40376422 -6.96131652 0 0 Z M-49 18 C-56.97387039 28.39108803 -59.26735882 38.05089905 -58 51 C-55.90914217 61.05364572 -50.33579984 69.87549689 -42.0625 75.9375 C-40.39664614 76.9932878 -38.7103716 78.01796846 -37 79 C-36.38769531 79.3609375 -35.77539062 79.721875 -35.14453125 80.09375 C-27.59917071 83.69153781 -15.99648012 83.23223469 -8.125 80.875 C-6.72915614 80.2980512 -5.35346489 79.6703602 -4 79 C-3.18144531 78.60941406 -2.36289063 78.21882813 -1.51953125 77.81640625 C7.68548244 72.90056687 14.21464591 65.17274657 17.37109375 55.1796875 C19.83076318 42.74384331 18.61936957 31.40052964 11.4609375 20.69921875 C5.55648422 13.26968156 -3.61896132 7.65708859 -13 6 C-27.54726222 4.77893447 -38.42556283 7.35471233 -49 18 Z " fill="#282829" transform="translate(67,3)"/>
<path d="M0 0 C2.64 0 5.28 0 8 0 C8 2.97 8 5.94 8 9 C9.093125 8.938125 10.18625 8.87625 11.3125 8.8125 C15 9 15 9 16.875 10.125 C18.40430823 12.67384706 18.67470941 15.07238473 19 18 C19.66 18 20.32 18 21 18 C21.185625 16.6078125 21.185625 16.6078125 21.375 15.1875 C22 12 22 12 24 9 C30.125 8.5625 30.125 8.5625 33 10 C33.99 9.67 34.98 9.34 36 9 C38.12109375 8.76171875 38.12109375 8.76171875 40.4375 8.6875 C41.19933594 8.65011719 41.96117187 8.61273438 42.74609375 8.57421875 C45 9 45 9 47.26953125 10.41015625 C49.91862064 14.37482051 49.42858661 18.09987932 49.25 22.75 C49.23195312 23.63816406 49.21390625 24.52632812 49.1953125 25.44140625 C49.14827374 27.62870848 49.08257009 29.81379816 49 32 C47.75605469 31.98324219 46.51210937 31.96648438 45.23046875 31.94921875 C42.32099595 31.91002378 40.22380395 32.17102625 37.3125 32.8125 C34 33 34 33 31 30.9375 C29 28 29 28 28.9375 24.875 C30.17729414 21.52026292 30.86143904 20.65187419 34 19 C36.31347872 18.26739841 38.645752 17.588562 41 17 C40.37351563 17.01160156 39.74703125 17.02320312 39.1015625 17.03515625 C38.28429687 17.04417969 37.46703125 17.05320312 36.625 17.0625 C35.81289062 17.07410156 35.00078125 17.08570312 34.1640625 17.09765625 C32 17 32 17 30 16 C29.60675537 16.93851807 29.60675537 16.93851807 29.20556641 17.89599609 C28.01708765 20.72448091 26.82114513 23.54974922 25.625 26.375 C25.00625 27.85226563 25.00625 27.85226563 24.375 29.359375 C23.97539062 30.30039062 23.57578125 31.24140625 23.1640625 32.2109375 C22.79748535 33.08024902 22.4309082 33.94956055 22.05322266 34.84521484 C21 37 21 37 19 39 C15.375 39.125 15.375 39.125 12 39 C12.33 37.02 12.66 35.04 13 33 C13.66 33 14.32 33 15 33 C13.83083249 26.49265979 11.84303828 20.9703804 9 15 C8.67 20.61 8.34 26.22 8 32 C5.9890625 31.9690625 5.9890625 31.9690625 3.9375 31.9375 C0.82084405 31.91303645 -1.65475235 32.13095047 -4.75 32.75 C-8 33 -8 33 -10.875 31.25 C-14.53575702 27.37390433 -14.27436049 23.5123278 -14.22265625 18.4453125 C-13.93470186 15.28286608 -13.04158753 13.41965929 -11 11 C-7.3558226 8.5705484 -5.28758728 8.83820425 -1 9 C-0.67 6.03 -0.34 3.06 0 0 Z M-4 16 C-6.34973818 17.89755144 -6.34973818 17.89755144 -6.125 21.125 C-6.08375 22.07375 -6.0425 23.0225 -6 24 C-4.34385343 24.38218767 -2.67542976 24.71395102 -1 25 C0.41577477 23.81575674 0.41577477 23.81575674 0.0625 20.4375 C0.041875 19.303125 0.02125 18.16875 0 17 C-1.89179203 16.3185177 -1.89179203 16.3185177 -4 16 Z M38 24 C37.67 24.66 37.34 25.32 37 26 C38.65 25.67 40.3 25.34 42 25 C40.68 24.67 39.36 24.34 38 24 Z " fill="#0097D7" transform="translate(168,14)"/>
<path d="M0 0 C0.66 0 1.32 0 2 0 C2 0.66 2 1.32 2 2 C2.99 1.67 3.98 1.34 5 1 C5 1.66 5 2.32 5 3 C8.96 3.33 12.92 3.66 17 4 C15.68510603 10.57446986 13.08245537 13.75868923 7.6953125 17.67578125 C-3.41233301 24.64833754 -14.95178301 27.24481443 -27.9375 24.34375 C-36.8670422 21.10679095 -44.15484129 15.127363 -49 7 C-49 6.01 -49 5.02 -49 4 C-46.00541566 2.50270783 -43.26744857 2.94666749 -39.9375 3 C-34.85752882 3.05860576 -29.95846757 2.84421965 -24.92578125 2.15234375 C-21.89349838 1.91246742 -18.99133249 2.53077137 -16 3 C-15.40316406 2.84660156 -14.80632813 2.69320312 -14.19140625 2.53515625 C-11.3363969 1.83794363 -8.68482153 1.90559977 -5.75 1.9375 C-4.13351563 1.95103516 -4.13351563 1.95103516 -2.484375 1.96484375 C-1.66453125 1.97644531 -0.8446875 1.98804688 0 2 C0 1.34 0 0.68 0 0 Z " fill="#F9FCFD" transform="translate(63,60)"/>
<path d="M0 0 C4.75 0.75 4.75 0.75 7 3 C6.625 6.625 6.625 6.625 6 10 C8.92880826 8.6021597 11.64879308 7.26340519 14.25 5.3125 C16 4 16 4 18 4 C16.85182066 6.58340351 15.72475246 8.3067044 13.8125 10.4375 C11.73483588 12.8343113 11.73483588 12.8343113 12.0625 15.625 C13.04521536 18.11454559 14.07964799 19.19934473 16 21 C16.45890625 20.43410156 16.9178125 19.86820313 17.390625 19.28515625 C18.00421875 18.55167969 18.6178125 17.81820312 19.25 17.0625 C19.85328125 16.33160156 20.4565625 15.60070312 21.078125 14.84765625 C23.10741134 12.89673666 24.254407 12.38268221 27 12 C26.50628906 12.72445312 26.01257813 13.44890625 25.50390625 14.1953125 C24.54291016 15.64550781 24.54291016 15.64550781 23.5625 17.125 C22.60537109 18.55199219 22.60537109 18.55199219 21.62890625 20.0078125 C19.94646775 23.09833502 19.36619196 25.52375519 19 29 C19.969375 29.103125 20.93875 29.20625 21.9375 29.3125 C26.48593839 29.94629879 30.69417104 31.44755827 35 33 C31.60797859 34.1306738 30.4262946 33.81462452 26.99609375 33.078125 C19.18502566 31.68249424 11.48198329 31.69907786 3.57348633 31.73925781 C1.07022806 31.74996694 -1.43231045 31.73931285 -3.93554688 31.7265625 C-13.16294259 31.71972106 -21.91933808 32.20895852 -31 34 C-28.3489776 31.94613858 -26.34596708 30.57322406 -23.0625 29.8125 C-22.41410156 29.65394531 -21.76570313 29.49539062 -21.09765625 29.33203125 C-18.70540128 28.95336892 -16.41814847 28.94532882 -14 29 C-14.76143669 27.05878789 -15.53451357 25.12213883 -16.3125 23.1875 C-16.95638672 21.56908203 -16.95638672 21.56908203 -17.61328125 19.91796875 C-18.87259748 17.26808362 -19.90432721 15.94817676 -22 14 C-22 13.34 -22 12.68 -22 12 C-19.50638429 13.20381448 -17.31856917 14.45428722 -15 16 C-14.67 14.35 -14.34 12.7 -14 11 C-12.68 10.67 -11.36 10.34 -10 10 C-11.32 8.02 -12.64 6.04 -14 4 C-9.40693504 5.4859916 -6.56430755 7.85014682 -3 11 C-2.34 10.67 -1.68 10.34 -1 10 C-1.20625 8.906875 -1.4125 7.81375 -1.625 6.6875 C-2 3 -2 3 0 0 Z " fill="#F1E4D5" transform="translate(45,21)"/>
<path d="M0 0 C1.16402344 0.65355469 1.16402344 0.65355469 2.3515625 1.3203125 C12.06859533 7.26752657 18.15858358 15.82880618 22.3125 26.3125 C24.71773177 39.21328856 22.36913556 50.59087918 15.01953125 61.421875 C9.88468493 67.97699796 3.77501422 72.96218013 -4 76 C-4.88945313 76.35578125 -5.77890625 76.7115625 -6.6953125 77.078125 C-16.94359302 79.9369834 -29.68181788 79.17676784 -39 74 C-49.60156342 67.17988595 -56.65681166 58.18692159 -60 46 C-61.34718574 33.29479765 -60.35407241 22.71383531 -52.6875 12.25 C-40.08899952 -2.91090736 -18.14199109 -10.54462298 0 0 Z M-48 11 C-55.97387039 21.39108803 -58.26735882 31.05089905 -57 44 C-54.90914217 54.05364572 -49.33579984 62.87549689 -41.0625 68.9375 C-39.39664614 69.9932878 -37.7103716 71.01796846 -36 72 C-35.38769531 72.3609375 -34.77539062 72.721875 -34.14453125 73.09375 C-26.59917071 76.69153781 -14.99648012 76.23223469 -7.125 73.875 C-5.72915614 73.2980512 -4.35346489 72.6703602 -3 72 C-2.18144531 71.60941406 -1.36289063 71.21882813 -0.51953125 70.81640625 C8.68548244 65.90056687 15.21464591 58.17274657 18.37109375 48.1796875 C20.83076318 35.74384331 19.61936957 24.40052964 12.4609375 13.69921875 C6.55648422 6.26968156 -2.61896132 0.65708859 -12 -1 C-26.54726222 -2.22106553 -37.42556283 0.35471233 -48 11 Z " fill="#0E95D0" transform="translate(66,10)"/>
<path d="M0 0 C1.65 0 3.3 0 5 0 C5 1.98 5 3.96 5 6 C5.94875 5.95875 6.8975 5.9175 7.875 5.875 C11 6 11 6 13 8 C13.625 10.625 13.625 10.625 14 13 C15.32 12.34 16.64 11.68 18 11 C16.68 11 15.36 11 14 11 C14 9.68 14 8.36 14 7 C16.95202442 5.52398779 19.65327952 5.75189648 22.9375 5.6875 C24.80728516 5.63142578 24.80728516 5.63142578 26.71484375 5.57421875 C30 6 30 6 31.94140625 8.01953125 C32.29074219 8.67308594 32.64007813 9.32664062 33 10 C33.66 8.68 34.32 7.36 35 6 C40.37305699 5.64766839 40.37305699 5.64766839 43 6 C45 8 45 8 46 10 C46.66 8.68 47.32 7.36 48 6 C50.10353495 5.9189794 52.20795952 5.86080093 54.3125 5.8125 C55.48425781 5.77769531 56.65601563 5.74289063 57.86328125 5.70703125 C61 6 61 6 62.90625 7.15625 C64.44203903 9.74515151 64.29286163 11.70225389 64.1875 14.6875 C64.14689453 16.17830078 64.14689453 16.17830078 64.10546875 17.69921875 C64.07066406 18.45847656 64.03585938 19.21773437 64 20 C62.39884424 20.2493357 60.79379841 20.47378648 59.1875 20.6875 C57.84751953 20.87892578 57.84751953 20.87892578 56.48046875 21.07421875 C54 21 54 21 52.171875 19.6796875 C51 18 51 18 51.0625 15.4375 C52 13 52 13 54.0625 11.6875 C54.701875 11.460625 55.34125 11.23375 56 11 C54.68 11 53.36 11 52 11 C49.81673892 15.27113698 47.68673918 19.50202887 46 24 C44.35 24 42.7 24 41 24 C41.3403125 22.7315625 41.3403125 22.7315625 41.6875 21.4375 C42.09143364 16.99422997 40.97302401 14.94604801 39 11 C37.02 15.29 35.04 19.58 33 24 C31.35 24 29.7 24 28 24 C28.309375 22.6696875 28.309375 22.6696875 28.625 21.3125 C29.02550239 17.7747289 28.56683516 16.13367033 27 13 C26.67 15.31 26.34 17.62 26 20 C20.0885256 20.77313045 14.8685408 21.14819277 9 20 C8.67 16.7 8.34 13.4 8 10 C7.01 10.495 7.01 10.495 6 11 C5.53348793 13.12576782 5.53348793 13.12576782 5.375 15.5625 C5.30023438 16.38878906 5.22546875 17.21507813 5.1484375 18.06640625 C5.09945312 18.70449219 5.05046875 19.34257813 5 20 C3.35 20 1.7 20 0 20 C0 13.4 0 6.8 0 0 Z " fill="#F38332" transform="translate(141,54)"/>
<path d="M0 0 C2.5625 0.1875 2.5625 0.1875 4.5625 2.1875 C4.78955078 5.16845703 4.78955078 5.16845703 4.7578125 8.9453125 C4.7549826 9.60836395 4.75215271 10.27141541 4.74923706 10.95455933 C4.73803435 13.07405583 4.71293051 15.19313104 4.6875 17.3125 C4.67747028 18.74869182 4.66834441 20.18489025 4.66015625 21.62109375 C4.638095 25.14336628 4.60356494 28.66539203 4.5625 32.1875 C1.9225 32.1875 -0.7175 32.1875 -3.4375 32.1875 C-3.9325 19.8125 -3.9325 19.8125 -4.4375 7.1875 C-7.57558224 13.38694732 -7.57558224 13.38694732 -10.359375 19.6875 C-10.81376953 20.79931641 -10.81376953 20.79931641 -11.27734375 21.93359375 C-11.57769531 22.67738281 -11.87804687 23.42117187 -12.1875 24.1875 C-12.50332031 24.96222656 -12.81914062 25.73695312 -13.14453125 26.53515625 C-13.91166752 28.4181271 -14.67499249 30.30264998 -15.4375 32.1875 C-18.0775 32.1875 -20.7175 32.1875 -23.4375 32.1875 C-26.53120918 25.58663664 -29.4415679 18.91384172 -32.25 12.1875 C-32.56396729 11.4457251 -32.87793457 10.7039502 -33.20141602 9.93969727 C-34.46848896 6.87898017 -35.4375 4.53366619 -35.4375 1.1875 C-32.4675 1.1875 -29.4975 1.1875 -26.4375 1.1875 C-20.88169134 12.70914009 -20.88169134 12.70914009 -20.4375 18.1875 C-19.7775 18.1875 -19.1175 18.1875 -18.4375 18.1875 C-18.33953125 17.630625 -18.2415625 17.07375 -18.140625 16.5 C-17.02498557 10.8063919 -15.21511221 6.27978905 -12.4375 1.1875 C-11.79941406 1.19910156 -11.16132813 1.21070313 -10.50390625 1.22265625 C-9.67761719 1.23167969 -8.85132813 1.24070312 -8 1.25 C-6.76443359 1.26740234 -6.76443359 1.26740234 -5.50390625 1.28515625 C-2.92457559 1.16325972 -2.69073834 0.20697987 0 0 Z " fill="#0096D8" transform="translate(148.4375,13.8125)"/>
<path d="M0 0 C0.7115625 0.31324219 1.423125 0.62648437 2.15625 0.94921875 C4.15482621 1.89257655 6.07302698 2.91921948 8 4 C8.99 4.515625 9.98 5.03125 11 5.5625 C19.445957 12.42484007 24.7160493 22.45083199 27 33 C27.24605809 36.5592675 27.23113979 40.12056228 27.25 43.6875 C27.270625 44.64333984 27.29125 45.59917969 27.3125 46.58398438 C27.34723708 52.95389686 26.42872251 58.1161697 24 64 C23.71584229 64.69319336 23.43168457 65.38638672 23.13891602 66.10058594 C22.44715778 67.74282204 21.72694288 69.3730326 21 71 C20.34 71 19.68 71 19 71 C18.896875 71.58910156 18.79375 72.17820312 18.6875 72.78515625 C16.96595619 78.33126612 11.34650547 82.00309365 6.5 84.75 C-6.32963331 91.3830077 -21.63033244 93.88067957 -35.8125 89.6875 C-37.22251617 89.16156146 -38.62058151 88.60163243 -40 88 C-40.70769531 87.71382813 -41.41539063 87.42765625 -42.14453125 87.1328125 C-43.7777266 86.45634105 -45.39189888 85.73413312 -47 85 C-47 84.34 -47 83.68 -47 83 C-48.32 82.67 -49.64 82.34 -51 82 C-51 81.34 -51 80.68 -51 80 C-52.32 79.34 -53.64 78.68 -55 78 C-55 77.34 -55 76.68 -55 76 C-55.66 76 -56.32 76 -57 76 C-66.4280749 65.29786092 -68.10725284 52.16095764 -67.54296875 38.43359375 C-66.67780928 27.15484429 -62.63564575 17.61377155 -54.734375 9.40625 C-53 8 -53 8 -51 8 C-51 7.34 -51 6.68 -51 6 C-37.73693671 -4.47083944 -15.40376422 -6.96131652 0 0 Z M-55 12 C-55 12.99 -55 13.98 -55 15 C-55.66 15.33 -56.32 15.66 -57 16 C-64.89496257 24.63708905 -66.84186784 36.65540913 -66.5078125 47.96875 C-65.87129269 54.62772645 -63.47992309 60.83561975 -61 67 C-60.34 67 -59.68 67 -59 67 C-58.34 68.98 -57.68 70.96 -57 73 C-56.34 73 -55.68 73 -55 73 C-54.7525 73.804375 -54.505 74.60875 -54.25 75.4375 C-53.27761141 78.171081 -53.27761141 78.171081 -50.875 78.8125 C-49.946875 78.9053125 -49.946875 78.9053125 -49 79 C-49 79.66 -49 80.32 -49 81 C-48.0409375 81.185625 -48.0409375 81.185625 -47.0625 81.375 C-46.381875 81.58125 -45.70125 81.7875 -45 82 C-44.505 82.99 -44.505 82.99 -44 84 C-42.09529034 84.92498003 -40.15002814 85.76752185 -38.1875 86.5625 C-37.12917969 86.99691406 -36.07085937 87.43132812 -34.98046875 87.87890625 C-22.01111094 92.75728855 -9.38377041 90.06306967 3 85 C3.66 84.67 4.32 84.34 5 84 C5 83.34 5 82.68 5 82 C6.65 81.34 8.3 80.68 10 80 C10 79.34 10 78.68 10 78 C10.61875 77.773125 11.2375 77.54625 11.875 77.3125 C14.61410209 75.62070165 15.05024472 74.00755839 16 71 C16.99 71 17.98 71 19 71 C25.45466571 57.43537256 27.87605757 44.93694415 25 30 C24.34 30 23.68 30 23 30 C22.896875 28.96875 22.79375 27.9375 22.6875 26.875 C22.00872203 23.04916055 20.88841205 20.36629975 19 17 C18.34 17 17.68 17 17 17 C17 16.34 17 15.68 17 15 C16.34 15 15.68 15 15 15 C14.93232422 14.14921875 14.93232422 14.14921875 14.86328125 13.28125 C12.61529636 7.34087364 3.55261662 3.29694941 -1.8984375 0.52734375 C-19.93834782 -6.52186491 -41.32062252 -1.67937748 -55 12 Z " fill="#000000" transform="translate(67,3)"/>
<path d="M0 0 C2.64 0 5.28 0 8 0 C8 10.56 8 21.12 8 32 C5.36 32 2.72 32 0 32 C-1.2375 32.20625 -2.475 32.4125 -3.75 32.625 C-7 33 -7 33 -9.25 32.5 C-11.99693724 30.14548236 -13.20459959 27.44890833 -14 24 C-14.20885093 19.30085418 -13.62872797 15.97351428 -11.0625 12 C-8.18613038 9.2107931 -7.48927077 9.0084357 -3.375 8.9375 C-2.26125 8.958125 -1.1475 8.97875 0 9 C0 6.03 0 3.06 0 0 Z M-4 16 C-5.04214691 20.61507774 -5.04214691 20.61507774 -4 25 C-2.68 25 -1.36 25 0 25 C0 22.03 0 19.06 0 16 C-1.32 16 -2.64 16 -4 16 Z " fill="#0097D9" transform="translate(232,14)"/>
<path d="M0 0 C2.375 0.0625 2.375 0.0625 5 1 C7 3.375 7 3.375 8 7 C7.33981491 10.84491794 6.22701394 14.27351322 5 18 C12.26 18 19.52 18 27 18 C27 17.34 27 16.68 27 16 C26.34 16 25.68 16 25 16 C24.01 13.03 23.02 10.06 22 7 C25 7 25 7 27.1875 9 C27.785625 9.66 28.38375 10.32 29 11 C29.45890625 10.43410156 29.9178125 9.86820313 30.390625 9.28515625 C31.00421875 8.55167969 31.6178125 7.81820312 32.25 7.0625 C32.85328125 6.33160156 33.4565625 5.60070313 34.078125 4.84765625 C36.10741134 2.89673666 37.254407 2.38268221 40 2 C39.50628906 2.72445312 39.01257813 3.44890625 38.50390625 4.1953125 C37.54291016 5.64550781 37.54291016 5.64550781 36.5625 7.125 C35.60537109 8.55199219 35.60537109 8.55199219 34.62890625 10.0078125 C32.94646775 13.09833502 32.36619196 15.52375519 32 19 C32.969375 19.103125 33.93875 19.20625 34.9375 19.3125 C39.48593839 19.94629879 43.69417104 21.44755827 48 23 C44.60797859 24.1306738 43.4262946 23.81462452 39.99609375 23.078125 C32.18502566 21.68249424 24.48198329 21.69907786 16.57348633 21.73925781 C14.07022806 21.74996694 11.56768955 21.73931285 9.06445312 21.7265625 C-0.16294259 21.71972106 -8.91933808 22.20895852 -18 24 C-15.3489776 21.94613858 -13.34596708 20.57322406 -10.0625 19.8125 C-9.41410156 19.65394531 -8.76570313 19.49539062 -8.09765625 19.33203125 C-5.70540128 18.95336892 -3.41814847 18.94532882 -1 19 C-1.76143669 17.05878789 -2.53451357 15.12213883 -3.3125 13.1875 C-3.95638672 11.56908203 -3.95638672 11.56908203 -4.61328125 9.91796875 C-5.87259748 7.26808362 -6.90432721 5.94817676 -9 4 C-9 3.34 -9 2.68 -9 2 C-6.50638429 3.20381448 -4.31856917 4.45428722 -2 6 C-1.855625 5.195625 -1.71125 4.39125 -1.5625 3.5625 C-1 1 -1 1 0 0 Z " fill="#0B9CD8" transform="translate(32,31)"/>
<path d="M0 0 C3.83625 -0.12375 3.83625 -0.12375 7.75 -0.25 C8.54889648 -0.28641602 9.34779297 -0.32283203 10.17089844 -0.36035156 C13.71369301 -0.41567984 15.61344338 -0.29791943 18.453125 1.890625 C21.49062614 6.03267202 21.11490526 9.65859401 21.0625 14.625 C21.05798828 15.42679688 21.05347656 16.22859375 21.04882812 17.0546875 C21.03703168 19.03649006 21.01909605 21.01825433 21 23 C18.03 23 15.06 23 12 23 C12 17.72 12 12.44 12 7 C11.01 7.33 10.02 7.66 9 8 C8.67 12.95 8.34 17.9 8 23 C5.36 23 2.72 23 0 23 C0 15.41 0 7.82 0 0 Z " fill="#0097D8" transform="translate(284,23)"/>
<path d="M0 0 C0.74121094 -0.03996094 1.48242188 -0.07992188 2.24609375 -0.12109375 C5.95779774 0.77397146 7.32635278 2.38038964 9.5625 5.4375 C10.15194502 8.57063539 10.03781588 11.57634278 9.875 14.75 C9.85244141 15.58595703 9.82988281 16.42191406 9.80664062 17.28320312 C9.7480061 19.33541149 9.65833215 21.38669202 9.5625 23.4375 C7.54427083 23.40494792 5.52604167 23.37239583 3.5078125 23.33984375 C1.48064596 23.31100758 1.48064596 23.31100758 -0.4375 24.4375 C-3.62950721 24.71506584 -5.8445908 24.68714598 -8.8125 23.4375 C-11.39325901 20.26118122 -10.70015854 17.44304268 -10.4375 13.4375 C-3.00892857 9.00892857 -3.00892857 9.00892857 0.5625 8.4375 C-1.355625 8.499375 -1.355625 8.499375 -3.3125 8.5625 C-5.4921875 8.6328125 -5.4921875 8.6328125 -7.4375 8.4375 C-8.0975 7.7775 -8.7575 7.1175 -9.4375 6.4375 C-9.3125 4.4375 -9.3125 4.4375 -8.4375 2.4375 C-5.6177532 0.69607396 -3.29683736 0.09713386 0 0 Z M-2.4375 15.4375 C-2.4375 16.0975 -2.4375 16.7575 -2.4375 17.4375 C-1.1175 17.1075 0.2025 16.7775 1.5625 16.4375 C0.2425 16.1075 -1.0775 15.7775 -2.4375 15.4375 Z " fill="#0095D8" transform="translate(272.4375,22.5625)"/>
<path d="M0 0 C2.76171875 1.41796875 2.76171875 1.41796875 5 4 C5.61241341 7.27062067 5.47152399 10.43740791 5.3125 13.75 C5.28994141 14.63816406 5.26738281 15.52632812 5.24414062 16.44140625 C5.18532552 18.62932812 5.10321268 20.81379671 5 23 C3.03873698 22.97965495 1.07747396 22.9593099 -0.88378906 22.93896484 C-3.28531012 22.96025919 -3.28531012 22.96025919 -6.75 23.625 C-10.08459517 24.00976098 -11.32998529 23.9511646 -14 22 C-15.39935013 19.20129973 -15.25265405 17.09501208 -15 14 C-13.1713585 11.4399019 -10.91947549 10.11627004 -8 9 C-5.25 8.875 -5.25 8.875 -3 9 C-3 8.34 -3 7.68 -3 7 C-3.62648437 7.09539063 -4.25296875 7.19078125 -4.8984375 7.2890625 C-5.71570313 7.39992188 -6.53296875 7.51078125 -7.375 7.625 C-8.18710938 7.74101562 -8.99921875 7.85703125 -9.8359375 7.9765625 C-10.55007812 7.98429687 -11.26421875 7.99203125 -12 8 C-12.66 7.34 -13.32 6.68 -14 6 C-14 5.01 -14 4.02 -14 3 C-9.99879444 -0.48492097 -5.08741822 -1.10633924 0 0 Z M-6 15 C-6.33 15.66 -6.66 16.32 -7 17 C-5.68 17 -4.36 17 -3 17 C-3 16.34 -3 15.68 -3 15 C-3.99 15 -4.98 15 -6 15 Z " fill="#0097D8" transform="translate(256,23)"/>
<path d="M0 0 C0.33 1.65 0.66 3.3 1 5 C-1.31 4.67 -3.62 4.34 -6 4 C-5.09098671 6.32370613 -5.09098671 6.32370613 -2.0625 7.4375 C1 9 1 9 3 12 C3 11.34 3 10.68 3 10 C3.31802943 8.33034549 3.64984951 6.66321482 4 5 C5.27875 4.938125 6.5575 4.87625 7.875 4.8125 C8.59429687 4.77769531 9.31359375 4.74289063 10.0546875 4.70703125 C10.69664062 4.80371094 11.33859375 4.90039062 12 5 C14.28062828 8.42094242 14.21925007 9.68187222 14.125 13.6875 C14.10695312 14.68136719 14.08890625 15.67523438 14.0703125 16.69921875 C14.04710937 17.45847656 14.02390625 18.21773437 14 19 C12.39773045 19.22245393 10.79303233 19.42746669 9.1875 19.625 C7.84751953 19.79902344 7.84751953 19.79902344 6.48046875 19.9765625 C4 20 4 20 1 18 C0.484375 18.350625 -0.03125 18.70125 -0.5625 19.0625 C-4.0211441 20.39274773 -6.4440159 19.85607025 -10 19 C-10.66 18.01 -11.32 17.02 -12 16 C-11.01 14.515 -11.01 14.515 -10 13 C-7.69 13.33 -5.38 13.66 -3 14 C-3.5775 13.70867187 -4.155 13.41734375 -4.75 13.1171875 C-7.00494095 11.87227218 -9.02299408 10.65396573 -11 9 C-11.6875 5.875 -11.6875 5.875 -11 3 C-7.71285224 -1.33305841 -5.07859488 -0.99363813 0 0 Z " fill="#F38631" transform="translate(126,55)"/>
<path d="M0 0 C1.32 0 2.64 0 4 0 C4 6.6 4 13.2 4 20 C-5 21 -5 21 -8 19 C-8.33 19.33 -8.66 19.66 -9 20 C-10.65 20 -12.3 20 -14 20 C-14 16.7 -14 13.4 -14 10 C-14.99 10 -15.98 10 -17 10 C-17 13.3 -17 16.6 -17 20 C-18.98 20 -20.96 20 -23 20 C-23.02685938 17.85423363 -23.04633088 15.70837355 -23.0625 13.5625 C-23.07410156 12.36753906 -23.08570313 11.17257813 -23.09765625 9.94140625 C-23 7 -23 7 -22 6 C-20.19187276 5.84908087 -18.37669383 5.77830992 -16.5625 5.75 C-15.57378906 5.72421875 -14.58507812 5.6984375 -13.56640625 5.671875 C-12.71949219 5.78015625 -11.87257813 5.8884375 -11 6 C-10.01 7.485 -10.01 7.485 -9 9 C-8.62875 8.505 -8.2575 8.01 -7.875 7.5 C-5.25305607 5.40244486 -3.26157528 5.78256165 0 6 C0 4.02 0 2.04 0 0 Z M-3 10 C-3.33 11.65 -3.66 13.3 -4 15 C-2.68 15.33 -1.36 15.66 0 16 C0 14.02 0 12.04 0 10 C-0.99 10 -1.98 10 -3 10 Z " fill="#F48432" transform="translate(283,54)"/>
<path d="M0 0 C6 1 6 1 7.4609375 2.84765625 C8.30729167 4.8984375 9.15364583 6.94921875 10 9 C11.65 6.03 13.3 3.06 15 0 C16.98 0 18.96 0 21 0 C21 6.27 21 12.54 21 19 C19.35 19 17.7 19 16 19 C15.67 16.69 15.34 14.38 15 12 C14.38125 13.2375 14.38125 13.2375 13.75 14.5 C12.88375 15.7375 12.88375 15.7375 12 17 C10.68 17 9.36 17 8 17 C6.25 14.5 6.25 14.5 5 12 C4.67 14.31 4.34 16.62 4 19 C2.68 19 1.36 19 0 19 C0 12.73 0 6.46 0 0 Z " fill="#F58533" transform="translate(226,55)"/>
<path d="M0 0 C1.32 0 2.64 0 4 0 C4 20.79 4 41.58 4 63 C2.68 63 1.36 63 0 63 C0 42.21 0 21.42 0 0 Z " fill="#8B8B8B" transform="translate(99,14)"/>
<path d="M0 0 C-1.10030176 2.47567895 -2.24108253 4.28628551 -4 6.375 C-6.19263694 9.25283598 -7.24795341 11.46538102 -8 15 C-7.20003343 17.18398635 -7.20003343 17.18398635 -6 19 C-6 19.99 -6 20.98 -6 22 C-5.34 22 -4.68 22 -4 22 C-4 22.66 -4 23.32 -4 24 C-8.95 24 -13.9 24 -19 24 C-16.61963003 16.1447791 -10.03017475 0 0 0 Z " fill="#EF8B40" transform="translate(63,25)"/>
<path d="M0 0 C1.65 0 3.3 0 5 0 C5.33 2.64 5.66 5.28 6 8 C6.66 7.34 7.32 6.68 8 6 C10.625 5.875 10.625 5.875 13 6 C12.690625 6.5775 12.38125 7.155 12.0625 7.75 C10.62702436 10.76367213 10.62702436 10.76367213 10 14 C11.3916876 16.13344768 11.3916876 16.13344768 13 18 C13 18.66 13 19.32 13 20 C10.625 20.125 10.625 20.125 8 20 C7.34 19.34 6.68 18.68 6 18 C5.67 18.66 5.34 19.32 5 20 C3.35 20 1.7 20 0 20 C0 13.4 0 6.8 0 0 Z " fill="#F38831" transform="translate(206,54)"/>
<path d="M0 0 C3.00548334 3.00548334 3.16182925 5.74368688 3.1875 9.8125 C3.13966204 11.20891272 3.08204828 12.60517921 3 14 C1.39773045 14.22245393 -0.20696767 14.42746669 -1.8125 14.625 C-2.70582031 14.74101563 -3.59914063 14.85703125 -4.51953125 14.9765625 C-7 15 -7 15 -10 13 C-10.3125 10.5 -10.3125 10.5 -10 8 C-9.34 7.34 -8.68 6.68 -8 6 C-8.66 4.68 -9.32 3.36 -10 2 C-6.28500878 -0.47666082 -4.39092112 -0.54886514 0 0 Z " fill="#F38A2F" transform="translate(298,60)"/>
<path d="M0 0 C1.51400391 0.01740234 1.51400391 0.01740234 3.05859375 0.03515625 C4.07050781 0.04417969 5.08242188 0.05320313 6.125 0.0625 C7.29869141 0.07990234 7.29869141 0.07990234 8.49609375 0.09765625 C8.82609375 1.74765625 9.15609375 3.39765625 9.49609375 5.09765625 C10.15609375 5.09765625 10.81609375 5.09765625 11.49609375 5.09765625 C11.33109375 6.02578125 11.16609375 6.95390625 10.99609375 7.91015625 C10.41860987 11.05386978 10.41860987 11.05386978 10.49609375 14.09765625 C8.84609375 14.09765625 7.19609375 14.09765625 5.49609375 14.09765625 C5.49609375 10.79765625 5.49609375 7.49765625 5.49609375 4.09765625 C4.50609375 4.09765625 3.51609375 4.09765625 2.49609375 4.09765625 C2.49609375 7.39765625 2.49609375 10.69765625 2.49609375 14.09765625 C0.51609375 14.09765625 -1.46390625 14.09765625 -3.50390625 14.09765625 C-3.53076563 11.95188988 -3.55023713 9.8060298 -3.56640625 7.66015625 C-3.57800781 6.46519531 -3.58960938 5.27023438 -3.6015625 4.0390625 C-3.47195922 0.13541183 -3.47195922 0.13541183 0 0 Z " fill="#F5912B" transform="translate(263.50390625,59.90234375)"/>
<path d="M0 0 C0.66 0.33 1.32 0.66 2 1 C2 5.29 2 9.58 2 14 C-6.75 15.125 -6.75 15.125 -9 14 C-9 11.69 -9 9.38 -9 7 C-7.68 6.34 -6.36 5.68 -5 5 C-6.32 5 -7.64 5 -9 5 C-9 3.68 -9 2.36 -9 1 C-6.01405576 -0.49297212 -3.29146376 -0.11755228 0 0 Z " fill="#F38430" transform="translate(257,60)"/>
<path d="M0 0 C7.59 0.33 15.18 0.66 23 1 C23 2.65 23 4.3 23 6 C15.19744856 7.21074074 7.84402334 6.72526532 0 6 C0 4.02 0 2.04 0 0 Z " fill="#8CD0ED" transform="translate(14,57)"/>
<path d="M0 0 C2.4375 0.125 2.4375 0.125 5 1 C6.3125 3.5625 6.3125 3.5625 7 6 C6.401875 6.680625 5.80375 7.36125 5.1875 8.0625 C2.76412357 11.31674834 1.4747599 14.23936225 0 18 C-3.31256692 16.34371654 -3.69428018 12.80050119 -4.90234375 9.4453125 C-5.99524819 7.01058589 -7.0987348 5.80918113 -9 4 C-9 3.34 -9 2.68 -9 2 C-6.50638429 3.20381448 -4.31856917 4.45428722 -2 6 C-1.855625 5.195625 -1.71125 4.39125 -1.5625 3.5625 C-1 1 -1 1 0 0 Z " fill="#A9DDC1" transform="translate(32,31)"/>
<path d="M0 0 C-0.15855469 0.66773438 -0.31710938 1.33546875 -0.48046875 2.0234375 C-2.65170171 14.46313311 -0.68866816 24.82766073 5 36 C3.02 36.495 3.02 36.495 1 37 C0.36967867 35.79443396 -0.2539497 34.58536811 -0.875 33.375 C-1.22304687 32.70210937 -1.57109375 32.02921875 -1.9296875 31.3359375 C-4.73963668 25.20327469 -5.33810527 20.03236992 -5.3125 13.375 C-5.33666992 12.1065625 -5.33666992 12.1065625 -5.36132812 10.8125 C-5.36616527 4.67899555 -5.36616527 4.67899555 -3.60546875 1.4140625 C-2 0 -2 0 0 0 Z " fill="#1896CE" transform="translate(11,33)"/>
<path d="M0 0 C0.495 1.485 0.495 1.485 1 3 C1.969375 3.103125 2.93875 3.20625 3.9375 3.3125 C8.48593839 3.94629879 12.69417104 5.44755827 17 7 C13.60797859 8.1306738 12.4262946 7.81462452 8.99609375 7.078125 C1.18502566 5.68249424 -6.51801671 5.69907786 -14.42651367 5.73925781 C-16.92977194 5.74996694 -19.43231045 5.73931285 -21.93554688 5.7265625 C-31.16294259 5.71972106 -39.91933808 6.20895852 -49 8 C-43.15593027 2.64293608 -35.58023527 2.71091275 -28.125 3.0234375 C-26.91009888 3.06097641 -26.91009888 3.06097641 -25.6706543 3.09927368 C-23.11329217 3.18068193 -20.5567967 3.27757066 -18 3.375 C-16.25394032 3.43332079 -14.50784628 3.49062216 -12.76171875 3.546875 C-8.50732458 3.68614103 -4.25363558 3.83928169 0 4 C0 2.68 0 1.36 0 0 Z " fill="#6AC2E8" transform="translate(63,47)"/>
<path d="M0 0 C7.59 0 15.18 0 23 0 C22.67 1.32 22.34 2.64 22 4 C20.89591797 3.98259766 20.89591797 3.98259766 19.76953125 3.96484375 C18.30580078 3.95130859 18.30580078 3.95130859 16.8125 3.9375 C15.84957031 3.92589844 14.88664062 3.91429687 13.89453125 3.90234375 C11.01995558 3.91525831 11.01995558 3.91525831 8.34375 4.5625 C5.13851851 5.16080988 2.98191631 4.17889715 0 3 C0 2.01 0 1.02 0 0 Z " fill="#71C5EA" transform="translate(39,59)"/>
<path d="M0 0 C5.84919984 1.7724848 9.77604679 5.77604679 14 10 C15.46109138 12.92218277 14.80577355 14.91120138 14 18 C13.67 18.66 13.34 19.32 13 20 C12.34 20 11.68 20 11 20 C10.45730469 18.89140625 9.91460937 17.7828125 9.35546875 16.640625 C8.63302726 15.17697731 7.91035908 13.7134415 7.1875 12.25 C6.83107422 11.52039062 6.47464844 10.79078125 6.10742188 10.0390625 C4.32469483 6.44089782 2.58911661 3.10367291 0 0 Z " fill="#F39046" transform="translate(31,25)"/>
<path d="M0 0 C3.54961685 5.32442528 2.55870229 11.96923139 1.4296875 18.09375 C0.23813528 22.75961763 -0.90027488 26.24907212 -4 30 C-5.46403139 24.94243701 -4.43391592 21.73924777 -2.8359375 16.9453125 C-1.26659286 11.41593933 -0.69743284 5.69433403 0 0 Z " fill="#118CC1" transform="translate(87,37)"/>
<path d="M0 0 C4.75 0.75 4.75 0.75 7 3 C7.36796448 5.87012296 7.37509409 7.40774618 5.8125 9.875 C4 11 4 11 1.3125 10.6875 C0.549375 10.460625 -0.21375 10.23375 -1 10 C-2.25 3.375 -2.25 3.375 0 0 Z " fill="#F59349" transform="translate(45,21)"/>
<path d="M0 0 C1.17949219 0.10183594 2.35898438 0.20367187 3.57421875 0.30859375 C4.47785156 0.39238281 5.38148437 0.47617187 6.3125 0.5625 C6.3125 2.2125 6.3125 3.8625 6.3125 5.5625 C4.37507659 5.58953381 2.43754521 5.60891125 0.5 5.625 C-0.57894531 5.63660156 -1.65789062 5.64820313 -2.76953125 5.66015625 C-5.6875 5.5625 -5.6875 5.5625 -8.6875 4.5625 C-9.375 2.5 -9.375 2.5 -9.6875 0.5625 C-6.14075997 -0.61974668 -3.71227005 -0.33079634 0 0 Z " fill="#7AC9EB" transform="translate(73.6875,57.4375)"/>
<path d="M0 0 C2.82957829 0.36276645 5.29084291 1.09694764 8 2 C8.6875 4.0625 8.6875 4.0625 9 6 C9.66 6 10.32 6 11 6 C11.99 7.485 11.99 7.485 13 9 C13.66 9.33 14.32 9.66 15 10 C15.6875 11.9375 15.6875 11.9375 16 14 C15.67 14.66 15.34 15.32 15 16 C15.99 16 16.98 16 18 16 C17.67 17.32 17.34 18.64 17 20 C16.505 19.360625 16.01 18.72125 15.5 18.0625 C7.93981611 8.61960255 7.93981611 8.61960255 -2 2 C-1.34 1.34 -0.68 0.68 0 0 Z " fill="#2A3034" transform="translate(68,9)"/>
<path d="M0 0 C0.51304688 0.16242188 1.02609375 0.32484375 1.5546875 0.4921875 C4.77574185 1.16109655 7.8371999 1.13186388 11.125 1.125 C12.36507812 1.12757813 13.60515625 1.13015625 14.8828125 1.1328125 C17.90723573 1.21668811 17.90723573 1.21668811 20 0 C20.99 0.33 21.98 0.66 23 1 C23.6875 3.0625 23.6875 3.0625 24 5 C23.35160156 4.84144531 22.70320313 4.68289062 22.03515625 4.51953125 C10.7430349 2.58664561 -0.48017284 3.37952689 -11 8 C-11.33 7.34 -11.66 6.68 -12 6 C-11.360625 5.896875 -10.72125 5.79375 -10.0625 5.6875 C-9.381875 5.460625 -8.70125 5.23375 -8 5 C-7.67 4.01 -7.34 3.02 -7 2 C-4.69 2 -2.38 2 0 2 C0 1.34 0 0.68 0 0 Z " fill="#2D2F30" transform="translate(37,3)"/>
<path d="M0 0 C0 1.65 0 3.3 0 5 C-0.93972656 5.19916016 -0.93972656 5.19916016 -1.8984375 5.40234375 C-2.71570313 5.57894531 -3.53296875 5.75554687 -4.375 5.9375 C-5.18710938 6.11152344 -5.99921875 6.28554687 -6.8359375 6.46484375 C-9.029463 6.92330693 -9.029463 6.92330693 -11 8 C-11.66 7.67 -12.32 7.34 -13 7 C-13 7.66 -13 8.32 -13 9 C-14.5 10.625 -14.5 10.625 -16 12 C-16.99 11.67 -17.98 11.34 -19 11 C-18.67 10.34 -18.34 9.68 -18 9 C-21.3 8.67 -24.6 8.34 -28 8 C-28 7.67 -28 7.34 -28 7 C-27.18917969 6.97421875 -26.37835938 6.9484375 -25.54296875 6.921875 C-16.99032227 6.48378833 -7.28272935 0 0 0 Z " fill="#29373E" transform="translate(71,81)"/>
<path d="M0 0 C2.86697492 1.28519565 4.97607712 2.57129254 7 5 C7 5.66 7 6.32 7 7 C7.66 7 8.32 7 9 7 C9 7.66 9 8.32 9 9 C9.66 9 10.32 9 11 9 C11.67119549 10.4562545 12.33681807 11.91507867 13 13.375 C13.556875 14.59316406 13.556875 14.59316406 14.125 15.8359375 C15 18 15 18 15 20 C13.35 20 11.7 20 10 20 C10.33 18.02 10.66 16.04 11 14 C10.01 14 9.02 14 8 14 C7.67 12.35 7.34 10.7 7 9 C6.01 8.67 5.02 8.34 4 8 C4 6.68 4 5.36 4 4 C3.34 4 2.68 4 2 4 C1.34 2.68 0.68 1.36 0 0 Z " fill="#262525" transform="translate(75,11)"/>
<path d="M0 0 C0.99 0 1.98 0 3 0 C3 6.6 3 13.2 3 20 C2.01 20 1.02 20 0 20 C0 13.4 0 6.8 0 0 Z " fill="#F58634" transform="translate(302,54)"/>
<path d="M0 0 C5.94 0.66 11.88 1.32 18 2 C15 4 15 4 12.3125 3.625 C11.549375 3.41875 10.78625 3.2125 10 3 C10 3.99 10 4.98 10 6 C6.7 6 3.4 6 0 6 C0 4.02 0 2.04 0 0 Z " fill="#6DC4E9" transform="translate(14,57)"/>
<path d="M0 0 C6.40140935 0.46555704 11.26769829 2.14711836 17 5 C14 7 14 7 11.72265625 6.57421875 C10.84480469 6.28160156 9.96695313 5.98898438 9.0625 5.6875 C3.05760994 3.8731883 -2.75535598 3.31604656 -9 3 C-9 2.67 -9 2.34 -9 2 C-4.545 1.505 -4.545 1.505 0 1 C0 0.67 0 0.34 0 0 Z " fill="#219ED5" transform="translate(51,6)"/>
<path d="M0 0 C0.66 0.33 1.32 0.66 2 1 C1.51651523 5.63478506 -0.24816272 7.87018236 -3.375 11.25 C-4.16648437 12.12140625 -4.95796875 12.9928125 -5.7734375 13.890625 C-8 16 -8 16 -11 17 C-9.24933204 13.11390189 -6.81675994 9.72187742 -4.375 6.25 C-3.95476562 5.64800781 -3.53453125 5.04601562 -3.1015625 4.42578125 C-2.07006863 2.94886957 -1.03535421 1.47420806 0 0 Z " fill="#0691CE" transform="translate(81,64)"/>
<path d="M0 0 C1.68178661 2.52267991 2.90106742 4.81091823 4.125 7.5625 C4.47820313 8.34753906 4.83140625 9.13257812 5.1953125 9.94140625 C6 12 6 12 6 14 C4.68 13.67 3.36 13.34 2 13 C2 12.34 2 11.68 2 11 C1.01 11 0.02 11 -1 11 C-2 4.375 -2 4.375 -2 1 C-1.34 0.67 -0.68 0.34 0 0 Z " fill="#282A2C" transform="translate(6,56)"/>
<path d="M0 0 C0.66 0.33 1.32 0.66 2 1 C0.66666667 5 -0.66666667 9 -2 13 C-3.65 13 -5.3 13 -7 13 C-6.40572612 11.39214223 -5.79916412 9.78882291 -5.1875 8.1875 C-4.85105469 7.29417969 -4.51460937 6.40085937 -4.16796875 5.48046875 C-3.03802681 3.08075928 -1.98937707 1.71576647 0 0 Z " fill="#0EAB67" transform="translate(38,37)"/>
<path d="M0 0 C0.66 0 1.32 0 2 0 C1.95875 1.2375 1.9175 2.475 1.875 3.75 C1.86912967 7.0843464 2.24673537 9.11227002 4 12 C4.36784131 13.3242287 4.71202981 14.65613912 5 16 C4.34 16 3.68 16 3 16 C3.33 17.32 3.66 18.64 4 20 C3.34 20 2.68 20 2 20 C0.19320413 15.37630977 -0.21839082 11.57471347 -0.125 6.625 C-0.10695312 5.37976562 -0.08890625 4.13453125 -0.0703125 2.8515625 C-0.04710938 1.91054688 -0.02390625 0.96953125 0 0 Z " fill="#212020" transform="translate(1,41)"/>
<path d="M0 0 C0.66 0 1.32 0 2 0 C1.84660156 0.65355469 1.69320313 1.30710938 1.53515625 1.98046875 C0.86620406 5.75492159 0.64592703 9.48905996 0.4375 13.3125 C0.39431641 14.05306641 0.35113281 14.79363281 0.30664062 15.55664062 C0.20129568 17.37091464 0.10021684 19.1854355 0 21 C-0.66 20.67 -1.32 20.34 -2 20 C-2.05392397 17.22890693 -2.09363455 14.45886182 -2.125 11.6875 C-2.14175781 10.90181641 -2.15851562 10.11613281 -2.17578125 9.30664062 C-2.18544922 8.1706543 -2.18544922 8.1706543 -2.1953125 7.01171875 C-2.20578613 6.31522217 -2.21625977 5.61872559 -2.22705078 4.90112305 C-2 3 -2 3 0 0 Z " fill="#17A0DC" transform="translate(9,33)"/>
<path d="M0 0 C0.33 0 0.66 0 1 0 C1 4.62 1 9.24 1 14 C0.01 14.495 0.01 14.495 -1 15 C-3.23082477 10.66957545 -3.0472723 7.71272535 -2 3 C-1.34 2.01 -0.68 1.02 0 0 Z " fill="#293136" transform="translate(5,39)"/>
<path d="M0 0 C0.66 0 1.32 0 2 0 C2.33 2.31 2.66 4.62 3 7 C3.66 7 4.32 7 5 7 C5 7.66 5 8.32 5 9 C2.69 9 0.38 9 -2 9 C-1.125 2.25 -1.125 2.25 0 0 Z " fill="#E4EEE8" transform="translate(39,40)"/>
<path d="M0 0 C0.66 0 1.32 0 2 0 C3.4606285 2.64738916 4 3.89448334 4 7 C4.66 7 5.32 7 6 7 C6 7.66 6 8.32 6 9 C3.36 9 0.72 9 -2 9 C-1.34 6.03 -0.68 3.06 0 0 Z " fill="#E2ECEF" transform="translate(53,40)"/>
<path d="M0 0 C3.86085606 1.57294136 6.44222339 3.71143007 9 7 C8.8125 10.8125 8.8125 10.8125 8 14 C6.45347763 11.68021645 4.930944 9.35384607 3.4375 7 C3.00308594 6.319375 2.56867187 5.63875 2.12109375 4.9375 C1 3 1 3 0 0 Z " fill="#23B470" transform="translate(23,33)"/>
<path d="M0 0 C0.66 0.66 1.32 1.32 2 2 C-8.11397059 7.29779412 -8.11397059 7.29779412 -12.375 6.625 C-12.91125 6.41875 -13.4475 6.2125 -14 6 C-13.01 5.67 -12.02 5.34 -11 5 C-11 4.34 -11 3.68 -11 3 C-10.113125 2.87625 -9.22625 2.7525 -8.3125 2.625 C-5.29612498 2.05587264 -2.79673946 1.23385564 0 0 Z " fill="#232121" transform="translate(69,85)"/>
<path d="M0 0 C0 0.33 0 0.66 0 1 C-15.74487472 3.11161731 -15.74487472 3.11161731 -23 4 C-16.3353224 -2.1092878 -8.29559057 -1.12844431 0 0 Z " fill="#4EB7E5" transform="translate(37,51)"/>
<path d="M0 0 C-1.44077046 3.36179774 -3.24750021 5.59156268 -6 8 C-6.66 8 -7.32 8 -8 8 C-9.56266521 9.099763 -9.56266521 9.099763 -11.125 10.5 C-12.07375 11.325 -13.0225 12.15 -14 13 C-12.00480493 8.10270302 -5.64638715 0 0 0 Z " fill="#F59D5B" transform="translate(63,25)"/>
<path d="M0 0 C2.475 0.495 2.475 0.495 5 1 C5.33 2.65 5.66 4.3 6 6 C4.34385343 6.38218767 2.67542976 6.71395102 1 7 C0 6 0 6 -0.0625 2.9375 C-0.041875 1.968125 -0.02125 0.99875 0 0 Z " fill="#25A5DC" transform="translate(58,31)"/>
<path d="M0 0 C3.63 0 7.26 0 11 0 C10.67 1.32 10.34 2.64 10 4 C6.05272412 4.17942163 3.4019487 4.09350689 0 2 C0 1.34 0 0.68 0 0 Z " fill="#60BEE7" transform="translate(51,59)"/>
<path d="M0 0 C0.66 1.32 1.32 2.64 2 4 C3.32 4 4.64 4 6 4 C6.66 3.01 7.32 2.02 8 1 C8.33 1.99 8.66 2.98 9 4 C7.17805188 6.57585768 5.22875556 8.77124444 3 11 C0.82361603 7.68811135 -0.55925456 4.96670899 -1 1 C-0.67 0.67 -0.34 0.34 0 0 Z " fill="#D0E9F2" transform="translate(57,33)"/>
<path d="M0 0 C2.5 1.625 2.5 1.625 5 4 C5.3125 7.25 5.3125 7.25 5 10 C4.01 10 3.02 10 2 10 C1.01 7.03 0.02 4.06 -1 1 C-0.67 0.67 -0.34 0.34 0 0 Z " fill="#28A5DB" transform="translate(55,37)"/>
<path d="M0 0 C0.99 0.33 1.98 0.66 3 1 C2.34 2.98 1.68 4.96 1 7 C-0.65 7.33 -2.3 7.66 -4 8 C-3.6875 5.125 -3.6875 5.125 -3 2 C-2.01 1.34 -1.02 0.68 0 0 Z " fill="#262424" transform="translate(85,67)"/>
<path d="M0 0 C0 0.66 0 1.32 0 2 C-4.75 3.125 -4.75 3.125 -7 2 C-7 2.66 -7 3.32 -7 4 C-9.31 4.33 -11.62 4.66 -14 5 C-14 4.34 -14 3.68 -14 3 C-9.07015675 0.96006486 -5.42039575 -0.40652968 0 0 Z " fill="#222121" transform="translate(44,1)"/>
<path d="M0 0 C0.99 0.33 1.98 0.66 3 1 C3 5.29 3 9.58 3 14 C1.42799297 10.85598593 0.54586064 8.64846381 -0.1875 5.3125 C-0.36667969 4.52488281 -0.54585938 3.73726562 -0.73046875 2.92578125 C-0.81941406 2.29027344 -0.90835938 1.65476562 -1 1 C-0.67 0.67 -0.34 0.34 0 0 Z " fill="#2F2B2C" transform="translate(87,30)"/>
<path d="M0 0 C1.32 0.99 2.64 1.98 4 3 C3.01 3 2.02 3 1 3 C1 4.98 1 6.96 1 9 C1.66 9.33 2.32 9.66 3 10 C2.01 10.33 1.02 10.66 0 11 C-1.84651134 7.88401212 -2.38079379 5.61754103 -2 2 C-1.34 1.34 -0.68 0.68 0 0 Z " fill="#E6F4FA" transform="translate(13,54)"/>
<path d="M0 0 C0.99 0 1.98 0 3 0 C3.89316269 5.93609666 3.97040422 11.06975197 3 17 C2.67 17 2.34 17 2 17 C1.93941406 16.10796875 1.87882812 15.2159375 1.81640625 14.296875 C1.73261719 13.12640625 1.64882812 11.9559375 1.5625 10.75 C1.48128906 9.58984375 1.40007812 8.4296875 1.31640625 7.234375 C1.06752213 4.69022624 0.71885058 2.44046752 0 0 Z " fill="#2BA9DF" transform="translate(83,34)"/>
<path d="M0 0 C4.86896303 0.59619955 9.32790951 1.56976822 14 3 C13.34 3.66 12.68 4.32 12 5 C11.05125 4.649375 10.1025 4.29875 9.125 3.9375 C6.12939828 2.64973223 6.12939828 2.64973223 4 4 C1.375 3.0625 1.375 3.0625 -1 2 C-0.67 1.34 -0.34 0.68 0 0 Z " fill="#201F1F" transform="translate(51,1)"/>
<path d="M0 0 C-1.65 0.33 -3.3 0.66 -5 1 C-5 1.66 -5 2.32 -5 3 C-11.93 2.505 -11.93 2.505 -19 2 C-19 1.67 -19 1.34 -19 1 C-16.20910735 0.63843896 -13.41759278 0.28545167 -10.625 -0.0625 C-9.43390625 -0.2181543 -9.43390625 -0.2181543 -8.21875 -0.37695312 C-2.2265625 -1.11328125 -2.2265625 -1.11328125 0 0 Z " fill="#28A8DF" transform="translate(61,84)"/>
<path d="M0 0 C2.475 0.495 2.475 0.495 5 1 C5 2.65 5 4.3 5 6 C3.35 5.67 1.7 5.34 0 5 C0 3.35 0 1.7 0 0 Z " fill="#0CAC61" transform="translate(31,32)"/>
<path d="M0 0 C2.86697492 1.28519565 4.97607712 2.57129254 7 5 C7 5.66 7 6.32 7 7 C7.66 7 8.32 7 9 7 C9.33 8.32 9.66 9.64 10 11 C8 11 8 11 6.4375 9.75 C4.85466889 7.82307517 4.4193175 6.43204149 4 4 C3.34 4 2.68 4 2 4 C1.34 2.68 0.68 1.36 0 0 Z " fill="#1D1D1D" transform="translate(75,11)"/>
<path d="M0 0 C2.0625 0.4375 2.0625 0.4375 4 1 C4.33 2.32 4.66 3.64 5 5 C-0.61 4.34 -6.22 3.68 -12 3 C-12 2.67 -12 2.34 -12 2 C-11.21753906 1.93941406 -10.43507812 1.87882813 -9.62890625 1.81640625 C-8.61699219 1.73261719 -7.60507812 1.64882812 -6.5625 1.5625 C-5.55316406 1.48128906 -4.54382812 1.40007813 -3.50390625 1.31640625 C-1.06359221 1.26788532 -1.06359221 1.26788532 0 0 Z " fill="#283B44" transform="translate(56,3)"/>
<path d="M0 0 C0 3 0 3 -1.1875 4.6875 C-3.55741722 6.40364695 -5.14025666 6.23187108 -8 6 C-8 5.01 -8 4.02 -8 3 C-2.25 0 -2.25 0 0 0 Z " fill="#232222" transform="translate(29,5)"/>
<path d="M0 0 C0.33 0.66 0.66 1.32 1 2 C0.67 2.99 0.34 3.98 0 5 C0.66 5.33 1.32 5.66 2 6 C1.071875 6.268125 0.14375 6.53625 -0.8125 6.8125 C-3.76240366 7.91148371 -5.05615186 8.62418561 -7 11 C-7.99 10.67 -8.98 10.34 -10 10 C-9.44570312 9.52949219 -8.89140625 9.05898437 -8.3203125 8.57421875 C-7.59585938 7.95160156 -6.87140625 7.32898438 -6.125 6.6875 C-5.40570313 6.07261719 -4.68640625 5.45773438 -3.9453125 4.82421875 C-1.80820669 2.9587676 -1.80820669 2.9587676 0 0 Z " fill="#2A363D" transform="translate(81,70)"/>
<path d="M0 0 C0.66 0 1.32 0 2 0 C2.33 0.66 2.66 1.32 3 2 C3.99 2.33 4.98 2.66 6 3 C6.33 4.65 6.66 6.3 7 8 C6.01 8.33 5.02 8.66 4 9 C3.34 7.02 2.68 5.04 2 3 C1.34 3 0.68 3 0 3 C0 2.01 0 1.02 0 0 Z " fill="#202020" transform="translate(6,67)"/>
<path d="M0 0 C2.33333823 2.12121657 3.9148886 4.01594365 5 7 C4.625 9.25 4.625 9.25 4 11 C4 10.01 4 9.02 4 8 C3.01 8 2.02 8 1 8 C-0.35439668 5.29120665 -0.06501451 2.99066732 0 0 Z " fill="#0A8BC3" transform="translate(82,26)"/>
<path d="M0 0 C3.125 -0.1875 3.125 -0.1875 6 0 C2.80331012 2.6486859 -0.39486597 4.93992341 -4 7 C-2.79618552 4.50638429 -1.54571278 2.31856917 0 0 Z " fill="#149CD8" transform="translate(24,12)"/>
<path d="M0 0 C0.66 0.33 1.32 0.66 2 1 C-3 7.57142857 -3 7.57142857 -8 9 C-6.4169423 4.7257442 -3.49431596 2.73468206 0 0 Z " fill="#38AEE2" transform="translate(70,33)"/>
<path d="M0 0 C-1.65 0.33 -3.3 0.66 -5 1 C-5.33 1.99 -5.66 2.98 -6 4 C-7.98 4 -9.96 4 -12 4 C-8.66437635 0.13769893 -4.98576775 -1.84658065 0 0 Z " fill="#0888C0" transform="translate(38,8)"/>
<path d="M0 0 C4.31392226 0.4793247 6.16569547 1.7457985 9 5 C6.75 5.75 6.75 5.75 4 6 C1.6875 4.1875 1.6875 4.1875 0 2 C0 1.34 0 0.68 0 0 Z " fill="#212121" transform="translate(65,5)"/>
<path d="M0 0 C4.875 4.75 4.875 4.75 6 7 C5.34 7.66 4.68 8.32 4 9 C3.34 8.67 2.68 8.34 2 8 C2 7.34 2 6.68 2 6 C1.34 5.67 0.68 5.34 0 5 C0 3.35 0 1.7 0 0 Z " fill="#2A3034" transform="translate(12,70)"/>
<path d="M0 0 C0.33 0 0.66 0 1 0 C1 1.98 1 3.96 1 6 C0.01 6.33 -0.98 6.66 -2 7 C-2.33 7.99 -2.66 8.98 -3 10 C-3.33 9.34 -3.66 8.68 -4 8 C-3.22265625 6.0546875 -3.22265625 6.0546875 -2.0625 3.875 C-1.49208984 2.78832031 -1.49208984 2.78832031 -0.91015625 1.6796875 C-0.60980469 1.12539063 -0.30945313 0.57109375 0 0 Z " fill="#0988BF" transform="translate(11,26)"/>
<path d="M0 0 C0.66 0.33 1.32 0.66 2 1 C1.67 2.65 1.34 4.3 1 6 C-0.98 6.66 -2.96 7.32 -5 8 C-3.35 5.36 -1.7 2.72 0 0 Z " fill="#1DA1DA" transform="translate(81,64)"/>
<path d="M0 0 C0.66 0 1.32 0 2 0 C2.33 3.63 2.66 7.26 3 11 C2.67 10.01 2.34 9.02 2 8 C1.34 8 0.68 8 0 8 C0 5.36 0 2.72 0 0 Z " fill="#212121" transform="translate(90,33)"/>
<path d="M0 0 C-0.33 0.99 -0.66 1.98 -1 3 C-3.06640625 3.73046875 -3.06640625 3.73046875 -5.5625 4.1875 C-6.38878906 4.34605469 -7.21507812 4.50460938 -8.06640625 4.66796875 C-9.02353516 4.83232422 -9.02353516 4.83232422 -10 5 C-10 4.34 -10 3.68 -10 3 C-8.70990357 2.49596232 -7.41786211 1.99690074 -6.125 1.5 C-5.04605469 1.08234375 -5.04605469 1.08234375 -3.9453125 0.65625 C-2 0 -2 0 0 0 Z " fill="#038FCB" transform="translate(66,82)"/>
<path d="M0 0 C2.15377564 2.62198774 3.40072174 4.64404172 4 8 C2.0625 7.6875 2.0625 7.6875 0 7 C-1.04449911 3.86650268 -0.93423645 3.01031744 0 0 Z " fill="#293339" transform="translate(8,62)"/>
<path d="M0 0 C0.33 0 0.66 0 1 0 C0.8864371 1.64666203 0.75882619 3.29236082 0.625 4.9375 C0.52058594 6.31228516 0.52058594 6.31228516 0.4140625 7.71484375 C0.27742188 8.46894531 0.14078125 9.22304688 0 10 C-0.99 10.495 -0.99 10.495 -2 11 C-2 8.36 -2 5.72 -2 3 C-1.34 3 -0.68 3 0 3 C0 2.01 0 1.02 0 0 Z " fill="#222222" transform="translate(92,50)"/>
<path d="M0 0 C0 1.65 0 3.3 0 5 C-0.99 5.33 -1.98 5.66 -3 6 C-3.66 5.67 -4.32 5.34 -5 5 C-2.74193548 0 -2.74193548 0 0 0 Z " fill="#2C3235" transform="translate(71,81)"/>
<path d="M0 0 C-0.33 1.32 -0.66 2.64 -1 4 C-3.91517292 2.92598892 -5.77810176 2.22189824 -8 0 C-5.13822943 -1.43088528 -3.06624227 -0.59991697 0 0 Z " fill="#2B3A40" transform="translate(74,10)"/>
<path d="M0 0 C2.64 0.66 5.28 1.32 8 2 C7.67 2.66 7.34 3.32 7 4 C4.69 3.34 2.38 2.68 0 2 C0 1.34 0 0.68 0 0 Z " fill="#159FDB" transform="translate(30,82)"/>
<path d="M0 0 C0.33 0.66 0.66 1.32 1 2 C2.65 2 4.3 2 6 2 C4.35 3.32 2.7 4.64 1 6 C0.34 5.34 -0.32 4.68 -1 4 C-0.625 1.875 -0.625 1.875 0 0 Z " fill="#2C3235" transform="translate(20,9)"/>
</svg>
